<svg width="414" height="303" viewBox="0 0 414 303" fill="none" xmlns="http://www.w3.org/2000/svg">
<g clip-path="url(#clip0_132_13)">
<path d="M414 0H0V303H414V0Z" fill="#E6ECF6"/>
<path d="M193.117 63.0437C190.344 63.0435 187.577 63.2455 184.859 63.6468C183.847 59.9607 181.704 56.4902 178.59 53.4961C175.476 50.5021 171.473 48.0625 166.882 46.3608C162.29 44.6591 157.23 43.7396 152.082 43.6716C146.934 43.6035 141.832 44.3885 137.159 45.9677C132.985 37.752 124.53 31.0749 113.64 27.3929C102.749 23.7109 90.3058 23.3227 79.0246 26.313C67.7434 29.3034 58.5396 35.4296 53.4209 43.3553C48.3021 51.2811 47.6839 60.3631 51.701 68.6204C41.805 68.8927 32.448 71.9823 25.6325 77.228C18.8169 82.4736 15.0841 89.4586 15.233 96.6882C15.3818 103.918 19.4004 110.818 26.4289 115.911C33.4573 121.005 42.9372 123.888 52.84 123.943H193.12C204.181 123.943 214.789 120.735 222.61 115.025C230.431 109.314 234.825 101.569 234.825 93.4934C234.825 85.4176 230.431 77.6726 222.61 71.9622C214.789 66.2518 204.181 63.0437 193.12 63.0437H193.117Z" fill="white"/>
<path opacity="0.52" d="M260.076 58.1672C257.646 58.1669 255.222 58.3437 252.84 58.6951C251.954 55.4649 250.075 52.4234 247.347 49.7996C244.618 47.1758 241.11 45.0379 237.087 43.5467C233.063 42.0555 228.629 41.2499 224.117 41.1904C219.606 41.131 215.135 41.8192 211.04 43.2034C207.38 36.007 199.971 30.1591 190.429 26.9347C180.887 23.7104 169.986 23.3711 160.104 25.991C150.221 28.6108 142.157 33.9772 137.671 40.9201C133.185 47.863 132.641 55.8192 136.157 63.0539C127.42 63.224 119.127 65.9022 113.077 70.5076C107.027 75.113 103.708 81.2742 103.84 87.6548C103.972 94.0353 107.543 100.121 113.78 104.591C120.018 109.061 128.417 111.556 137.157 111.534H260.076C269.768 111.534 279.063 108.723 285.917 103.719C292.77 98.7153 296.62 91.9288 296.62 84.8524C296.62 77.776 292.77 70.9895 285.917 65.9857C279.063 60.9819 269.768 58.1709 260.076 58.1709V58.1672Z" fill="white"/>
<path d="M344.514 141.339C346.26 141.339 348.002 141.466 349.714 141.719C350.351 139.398 351.7 137.214 353.661 135.329C355.621 133.444 358.141 131.908 361.031 130.837C363.921 129.766 367.106 129.187 370.347 129.144C373.588 129.101 376.799 129.595 379.741 130.589C382.345 125.393 387.664 121.163 394.533 118.828C401.402 116.492 409.26 116.24 416.382 118.128C423.505 120.016 429.311 123.889 432.528 128.899C435.745 133.908 436.109 139.644 433.541 144.849C439.796 144.994 445.723 146.928 450.043 150.233C454.364 153.539 456.733 157.951 456.639 162.52C456.545 167.089 453.995 171.448 449.541 174.657C445.086 177.866 439.082 179.669 432.824 179.676H344.514C341.053 179.692 337.621 179.207 334.417 178.251C331.213 177.295 328.299 175.885 325.844 174.104C323.389 172.322 321.441 170.204 320.111 167.87C318.781 165.537 318.097 163.034 318.097 160.507C318.097 157.98 318.781 155.478 320.111 153.144C321.441 150.811 323.389 148.692 325.844 146.911C328.299 145.129 331.213 143.72 334.417 142.763C337.621 141.807 341.053 141.323 344.514 141.338V141.339Z" fill="white"/>
<path d="M-19.239 186.316C-16.994 186.315 -14.7545 186.479 -12.554 186.804C-11.7345 183.82 -9.99911 181.011 -7.47838 178.587C-4.95765 176.164 -1.71718 174.189 1.99938 172.812C5.71593 171.434 9.81184 170.69 13.9791 170.635C18.1464 170.58 22.2765 171.215 26.059 172.493C27.7081 169.176 30.2357 166.129 33.4977 163.526C36.7596 160.923 40.6919 158.814 45.0701 157.32C49.4483 155.826 54.1866 154.976 59.0145 154.82C63.8424 154.663 68.6654 155.202 73.208 156.406C77.7506 157.61 81.924 159.455 85.4897 161.837C89.0555 164.218 91.9438 167.089 93.9899 170.286C96.0359 173.483 97.1996 176.942 97.4144 180.467C97.6293 183.992 96.8911 187.513 95.242 190.83C103.288 191.014 110.913 193.499 116.472 197.75C122.03 202.001 125.078 207.677 124.957 213.554C124.836 219.43 121.556 225.037 115.825 229.164C110.093 233.291 102.37 235.608 94.32 235.615H-19.239C-28.193 235.615 -36.7802 233.018 -43.1116 228.395C-49.443 223.773 -53 217.503 -53 210.965C-53 204.428 -49.443 198.158 -43.1116 193.535C-36.7802 188.913 -28.193 186.316 -19.239 186.316V186.316Z" fill="white"/>
</g>
<defs>
<clipPath id="clip0_132_13">
<rect width="414" height="303" fill="white"/>
</clipPath>
</defs>
</svg>
